USFL
nRows=129
nColumns=2
inDegrees=yes
endheader
time	soleus_r	
2.79133	 35.316526	
2.8629	 34.915289	
2.93448	 34.854920	
3.00605	 34.094684	
3.07762	 34.814209	
3.14919	 34.548062	
3.22077	 34.482986	
3.29234	 34.318522	
3.36391	 34.660419	
3.43548	 34.178269	
3.50706	 34.182893	
3.57863	 34.039461	
3.6502	 34.192638	
3.72177	 34.200232	
3.79335	 34.215357	
3.86492	 34.054230	
3.93649	 34.118130	
4.00806	 33.944013	
4.07964	 33.903782	
4.15121	 33.864984	
4.22278	 34.003553	
4.29435	 33.467316	
4.36593	 33.509585	
4.4375	 33.592876	
4.50907	 33.800453	
4.58065	 33.590973	
4.65222	 34.017777	
4.72379	 33.902911	
4.79536	 33.951117	
4.86694	 34.073998	
4.93851	 34.653754	
5.01008	 35.586258	
5.08165	 35.494151	
5.15323	 36.931200	
5.2248	 32.037322	
5.29637	 31.195682	
5.36794	 30.053159	
5.43952	 30.059515	
5.51109	 27.127411	
5.58266	 27.702037	
5.65423	 29.550064	
5.72581	 27.424679	
5.79738	 28.655247	
5.86895	 28.655247	
5.94052	 28.655247	
6.0121	 28.655247	
6.08367	 28.655247	
6.15524	 28.655247	
6.22681	 28.655247	
6.29839	 28.655247	
6.36996	 28.655247	
6.44153	 28.655247	
6.5131	 28.655247	
6.58468	 28.655247	
6.65625	 27.636239	
6.72782	 26.542501	
6.7994	 26.542501	
6.87097	 27.307607	
6.94254	 27.307607	
7.01411	 27.307607	
7.08569	 26.101437	
7.15726	 26.039580	
7.22883	 26.039936	
7.3004	 26.750632	
7.37198	 27.367183	
7.44355	 27.367183	
7.51512	 27.692811	
7.58669	 26.198050	
7.65827	 27.808096	
7.72984	 29.420048	
7.80141	 27.406611	
7.87298	 27.273668	
7.94456	 29.677099	
8.01613	 26.671594	
8.0877	 26.671594	
8.15927	 26.561933	
8.23085	 26.471713	
8.30242	 26.471713	
8.37399	 26.047311	
8.44556	 26.175915	
8.51714	 26.152687	
8.58871	 25.101614	
8.66028	 25.101614	
8.73185	 25.101614	
8.80343	 25.101614	
8.875	 25.101614	
8.94657	 25.101614	
9.01815	 25.101614	
9.08972	 25.101614	
9.16129	 25.101614	
9.23286	 25.101614	
9.30444	 26.136778	
9.37601	 23.488298	
9.44758	 26.852092	
9.51915	 26.852092	
9.59073	 26.852092	
9.6623	 28.485593	
9.73387	 27.376951	
9.80544	 27.376951	
9.87702	 27.376951	
9.94859	 27.376951	
10.0202	 27.376951	
10.0917	 27.376951	
10.1633	 25.884421	
10.2349	 25.884421	
10.3065	 24.569848	
10.378	 24.578915	
10.4496	 24.578915	
10.5212	 24.578915	
10.5927	 24.578915	
10.6643	 24.578915	
10.7359	 25.050221	
10.8075	 27.394245	
10.879	 26.803747	
10.9506	 27.957616	
11.0222	 28.491838	
11.0937	 30.139976	
11.1653	 34.810868	
11.2369	 32.996689	
11.3085	 33.614988	
11.38	 34.442909	
11.4516	 34.190235	
11.5232	 36.116389	
11.5948	 36.281301	
11.6663	 30.023074	
11.7379	 27.979276	
11.8095	 28.311899	
11.881	 28.277456	
11.9526	 29.452813	
